<!-- Generated by IcoMoon.io -->
<svg version="1.1" xmlns="http://www.w3.org/2000/svg" width="1024" height="1024" viewBox="0 0 1024 1024">
<title></title>
<g id="icomoon-ignore">
</g>
<path fill="#000" d="M957.936 81.92h-891.871c-17.514 0.023-34.305 6.991-46.689 19.375s-19.352 29.175-19.375 46.689v561.549c0.023 17.514 6.991 34.304 19.375 46.69 12.385 12.382 29.175 19.35 46.689 19.374h340.439l-22.028 66.064h-54.152c-4.381 0-8.582 1.741-11.679 4.837s-4.837 7.299-4.837 11.678v33.034h-148.645c-4.38 0-8.582 1.737-11.679 4.837-3.097 3.097-4.837 7.295-4.837 11.678 0 4.379 1.74 8.581 4.837 11.678s7.299 4.837 11.679 4.837h726.71c4.379 0 8.581-1.741 11.678-4.837s4.837-7.299 4.837-11.678c0-4.383-1.741-8.581-4.837-11.678-3.097-3.101-7.299-4.837-11.678-4.837h-181.678v-33.034c0-4.379-1.741-8.581-4.837-11.678s-7.299-4.837-11.678-4.837h-54.153l-22.028-66.064h340.439c17.514-0.025 34.304-6.992 46.69-19.374 12.382-12.386 19.35-29.176 19.374-46.69v-561.549c-0.025-17.514-6.992-34.305-19.374-46.689-12.386-12.385-29.176-19.352-46.69-19.375zM677.163 874.693v16.519h-330.324v-16.519h330.324zM419.303 841.662l22.028-66.064h141.337l22.028 66.064h-185.393zM990.966 709.534c-0.008 8.757-3.494 17.15-9.687 23.343-6.189 6.193-14.586 9.679-23.343 9.687h-891.871c-8.757-0.008-17.152-3.494-23.344-9.687s-9.676-14.586-9.688-23.343v-33.034h957.933v33.034zM280.072 494.821l-6.194 148.648h-19.241l-6.194-148.648h31.628zM250.715 461.791l11.024-66.064h5.037l11.025 66.064h-27.086zM264.258 362.694c-17.899 0-33.032-22.689-33.032-49.548 0-16.95 17.301-41.579 32.991-58.942 14.142 15.69 33.074 40.774 33.074 58.942 0 26.86-15.133 49.548-33.032 49.548zM443.994 329.662l1.942 3.902v12.614h-66.065v-12.614l1.941-3.902h62.183zM398.328 296.63l14.574-29.13 14.578 29.13h-29.151zM445.936 379.21v262.195c0.008 0.688 0.053 1.38 0.143 2.064h-66.352c0.090-0.684 0.138-1.376 0.144-2.064v-262.195h66.065zM594.579 313.146h49.549v33.032h-16.515c-4.383 0-8.581 1.74-11.678 4.837-3.101 3.097-4.837 7.299-4.837 11.679s1.737 8.581 4.837 11.679c3.097 3.097 7.295 4.837 11.678 4.837h16.515v33.033h-49.549c-4.379 0-8.581 1.74-11.678 4.837s-4.837 7.298-4.837 11.679c0 4.38 1.741 8.582 4.837 11.679s7.299 4.837 11.678 4.837h49.549v33.032h-16.515c-4.383 0-8.581 1.74-11.678 4.837-3.101 3.097-4.837 7.298-4.837 11.677 0 4.383 1.737 8.581 4.837 11.682 3.097 3.097 7.295 4.837 11.678 4.837h16.515v33.030h-49.549c-4.379 0-8.581 1.741-11.678 4.837s-4.837 7.299-4.837 11.678c0 4.383 1.741 8.585 4.837 11.682s7.299 4.837 11.678 4.837h49.549v66.064h-115.614v-396.388h115.614v33.032h-49.549c-4.379 0-8.581 1.74-11.678 4.837s-4.837 7.298-4.837 11.679c0 4.38 1.741 8.581 4.837 11.679s7.299 4.837 11.678 4.837zM792.773 511.341v130.064c0.008 0.688 0.057 1.38 0.147 2.064h-66.355c0.090-0.684 0.139-1.376 0.143-2.064v-130.064h66.064zM726.708 478.307v-12.614l33.034-66.065 33.030 66.065v12.614h-66.064zM990.966 643.469h-165.302c0.090-0.684 0.135-1.376 0.143-2.064v-179.614c-0.004-2.564-0.598-5.093-1.733-7.391l-49.549-99.097c-1.376-2.743-3.486-5.049-6.099-6.661-2.609-1.612-5.616-2.465-8.684-2.465s-6.074 0.853-8.688 2.465c-2.609 1.612-4.719 3.918-6.095 6.661l-49.549 99.097c-1.139 2.298-1.733 4.827-1.733 7.391v179.614c0.004 0.688 0.053 1.38 0.143 2.064h-16.658v-412.904c0-4.38-1.741-8.581-4.837-11.679-3.101-3.097-7.299-4.837-11.682-4.837h-148.644c-4.379 0-8.581 1.74-11.678 4.837s-4.837 7.298-4.837 11.679v412.904h-16.663c0.090-0.684 0.139-1.376 0.143-2.064v-311.743c0-2.564-0.594-5.093-1.733-7.391l-49.549-99.097c-1.372-2.743-3.486-5.049-6.095-6.661s-5.62-2.465-8.688-2.465c-3.068 0-6.074 0.854-8.684 2.465s-4.721 3.918-6.096 6.661l-49.548 99.097c-1.138 2.298-1.732 4.827-1.734 7.391v311.743c0.007 0.688 0.055 1.38 0.145 2.064h-40.052l6.854-164.481c0.020-0.372 0-0.743 0-1.135v-0.496c-0.039-0.581-0.107-1.16-0.206-1.734v-0.041l-15.278-91.685c19.18-14.472 32.021-40.774 32.021-70.751 0-42.446-49.197-89.455-54.813-94.679-3.060-2.836-7.079-4.413-11.252-4.413s-8.191 1.576-11.251 4.413c-5.616 5.223-54.813 52.232-54.813 94.679 0 29.977 12.841 56.279 32.020 70.751l-15.277 91.685v0.041c-0.099 0.574-0.168 1.153-0.206 1.734v0.496c0 0.392-0.020 0.764 0 1.135l6.854 164.481h-188.552v-495.485c0.011-8.757 3.495-17.152 9.688-23.344s14.587-9.676 23.344-9.688h891.871c8.757 0.011 17.154 3.495 23.343 9.688 6.193 6.192 9.679 14.587 9.687 23.344v495.485z"></path>
<path fill="#000" d="M181.678 693.015h-99.097c-4.38 0-8.581 1.741-11.679 4.837s-4.837 7.299-4.837 11.678c0 4.383 1.74 8.581 4.837 11.682 3.097 3.097 7.298 4.837 11.679 4.837h99.097c4.38 0 8.581-1.741 11.679-4.837 3.097-3.101 4.837-7.299 4.837-11.682 0-4.379-1.74-8.581-4.837-11.678s-7.298-4.837-11.679-4.837z"></path>
<path fill="#000" d="M247.742 693.015h-16.516c-4.38 0-8.581 1.741-11.679 4.837s-4.838 7.299-4.838 11.678c0 4.383 1.74 8.581 4.838 11.682 3.097 3.097 7.298 4.837 11.679 4.837h16.516c4.381 0 8.582-1.741 11.679-4.837 3.097-3.101 4.837-7.299 4.837-11.682 0-4.379-1.74-8.581-4.837-11.678s-7.298-4.837-11.679-4.837z"></path>
<path fill="#000" d="M412.905 395.725c-4.382 0-8.583 1.74-11.681 4.838s-4.837 7.298-4.837 11.679v181.679c0 4.379 1.74 8.581 4.837 11.678s7.298 4.837 11.681 4.837c4.379 0 8.581-1.741 11.678-4.837s4.837-7.299 4.837-11.678v-181.679c0-4.38-1.741-8.581-4.837-11.679s-7.299-4.838-11.678-4.838z"></path>
<path fill="#000" d="M759.742 527.856c-4.383 0-8.581 1.741-11.682 4.837-3.097 3.097-4.837 7.299-4.837 11.678v49.549c0 4.379 1.741 8.581 4.837 11.678 3.101 3.097 7.299 4.837 11.682 4.837 4.379 0 8.581-1.741 11.678-4.837s4.837-7.299 4.837-11.678v-49.549c0-4.379-1.741-8.581-4.837-11.678s-7.299-4.837-11.678-4.837z"></path>
<path fill="#000" d="M82.581 181.017h132.129c4.38 0 8.581-1.74 11.679-4.838s4.837-7.298 4.837-11.679c0-4.38-1.74-8.581-4.837-11.679s-7.298-4.837-11.679-4.837h-132.129c-4.38 0-8.581 1.74-11.679 4.837s-4.837 7.298-4.837 11.679c0 4.38 1.74 8.581 4.837 11.679s7.298 4.838 11.679 4.838z"></path>
<path fill="#000" d="M82.581 230.567h33.032c4.38 0 8.582-1.74 11.679-4.837s4.837-7.298 4.837-11.679c0-4.38-1.74-8.582-4.837-11.679s-7.299-4.837-11.679-4.837h-33.032c-4.38 0-8.581 1.74-11.679 4.837s-4.837 7.299-4.837 11.679c0 4.38 1.74 8.581 4.837 11.679s7.298 4.837 11.679 4.837z"></path>
<path fill="#000" d="M875.352 610.439h66.064c4.383 0 8.581-1.741 11.682-4.837 3.097-3.101 4.837-7.299 4.837-11.682 0-4.379-1.741-8.581-4.837-11.678-3.101-3.097-7.299-4.837-11.682-4.837h-66.064c-4.379 0-8.581 1.741-11.678 4.837s-4.837 7.299-4.837 11.678c0 4.383 1.741 8.581 4.837 11.682 3.097 3.097 7.299 4.837 11.678 4.837z"></path>
<path fill="#000" d="M924.905 560.886h16.515c4.379 0 8.581-1.737 11.678-4.837 3.097-3.097 4.837-7.295 4.837-11.678 0-4.379-1.741-8.581-4.837-11.678s-7.299-4.837-11.678-4.837h-16.515c-4.383 0-8.581 1.741-11.682 4.837-3.097 3.097-4.837 7.299-4.837 11.678 0 4.383 1.741 8.581 4.837 11.678 3.101 3.101 7.299 4.837 11.682 4.837z"></path>
</svg>
