<!-- Generated by IcoMoon.io -->
<svg version="1.1" xmlns="http://www.w3.org/2000/svg" width="1024" height="1024" viewBox="0 0 1024 1024">
<title></title>
<g id="icomoon-ignore">
</g>
<path fill="#000" d="M0 20.48v840.52h328.664v60.097h-60.072v60.002h486.813v-60.002h-60.072v-60.097h328.667v-840.52h-1024zM635.331 921.096h-246.662v-60.097h246.662v60.097zM963.998 800.997h-903.996v-120.152h903.996v120.152zM963.998 620.843h-903.996v-540.359h903.996v540.359z"></path>
<path fill="#000" d="M407.886 242.213l-42.428-42.428-150.878 150.878 150.878 150.876 42.428-42.426-108.45-108.449 108.45-108.45z"></path>
<path fill="#000" d="M658.543 199.785l-42.426 42.428 108.45 108.45-108.45 108.449 42.426 42.426 150.876-150.876-150.876-150.878z"></path>
<path fill="#000" d="M517.403 169.74l-69.657 350.169 58.851 11.706 69.657-350.169-58.851-11.707z"></path>
</svg>
