<?xml version="1.0" encoding="UTF-8"?> <svg xmlns="http://www.w3.org/2000/svg" width="135" height="125" viewBox="0 0 135 125" fill="none"> <path d="M62.5 42.7C63 42.5 63.5 42.3 64 42.1C65.1 38.4 66.5 34.9 68.6 31.6C68.9 31.1 69.3 30.7 69.6 30.3C65.6 23.3 57.2 13 44.6 7.89999C35 3.99999 31.8 11.9 32.3 19.4C30.8 19.8 29.3 20.4 27.9 21.3C20.3 25.8 30.6 38.6 49.9 47C53.9 44.8 58.2 43.8 62.5 42.7Z" fill="white"></path> <path d="M87.5 85.3001C85.8 79.1001 80.1 73.4001 75.6 73.5001C74.2 73.5001 71.4 83.1001 71.2 84.3001C71.1 85.0001 71 85.7001 71.1 86.3001C71.6 88.8001 72.3 91.3001 72.9 93.9001C71.9 94.3001 70.7 94.6001 69.7 95.1001C68.4 95.8001 68.3 97.0001 69 98.0001C69.3 97.5001 69.3 96.9001 69.8 96.9001C70.1 96.9001 70.1 97.6001 70.2 97.9001C70.5 97.9001 71 97.1001 71.3 97.1001C71.5 97.1001 71.4 97.6001 71.5 97.7001C72.2 98.5001 73.1 98.3001 74 98.3001C75.4 98.3001 76.8 98.2001 78.2 98.3001C80.2 98.6001 81.1 97.6001 82 96.0001C83.3 93.6001 84.8 91.2001 86.2 88.8001C86.5 88.2001 86.8 87.6001 87 87.0001C87.3 86.6001 87.7 85.4001 87.5 85.3001Z" fill="black"></path> <path d="M113.4 62.5C113.3 61.4 112.9 59.9 112.2 58.1C112.7 58.4 113 58.5 113.7 58.9C114.5 59.4 113.9 57.6 113.6 56.8C110.8 50.5 104.8 44.5 98.2 41.8C89.2 38.1 79.8 37.7 70.3 39.3C58.9 41.2 48.4 45.4 38.6 51.1C36.7 52.2 36 52.5 33.7 51.7C33.3 51.6 32.6 51.4 32.2 51.2C31.3 50.9 30.4 51.2 29.9 51.8C28.9 53 29.3 55.3 29.4 56.3C28.3 57.3 28.5 56.9 27.4 58.1C24.4 61.2001 22.6 64.7 23.7 69C24.3 71.5 25.7 73.7 27.7 75.4C30.8 78.1 34.5 79.6 38.6 80.3C37.2 78.9 35.6 77.6 34.3 76C32.1 73.4 31.7 70.5 33.4 67.5C35.1 64.5 37.4 62.1 40.3 60.2C41.8 59.2 43.1 59.3 44.5 60.3C47.3 62.1 49.4 64.4 51.1 67.2C52.8 70.1 52.8 73.0001 50.7 75.6001C49.3 77.3001 47.7 78.7001 46.2 80.3C53.4 78.7001 59.4 75.7001 61.4 68.1C61.5 71.7001 59.8 74.5 57 76.7C50.4 81.9 42.9 82.7 34.9 80.5C33.2 80 31.6 79.2 29.9 78.5V94.2C28.7 94.5 27.1 94.7001 26.7 96.3C26.6 96.7001 27 97.4 27.4 98C28 97.3 27.4 97.1001 27.9 97.1001C28 97.1001 28.3 97.5 28.3 98C28.7 97.9 28.9 96.8 29.4 97.8C29.5 98 30.3 98.0001 30.5 98.1001C32.5 98.6001 33.7 98.3 35.3 98.4C36.5 98.5 37.2 98 37.7 97C39 94.2 40.3 91.3001 41.8 88.6001C42.7 86.8001 43.9 85.2 45.2 83.2C46.7 86.1 46.9 88.8 46.7 91.5C46.6 93.1 46.6 94.7001 44.2 94.8C44 94.8 43.7 95 43.5 95.2C42.2 96.1 42.1 97 43.5 97.8C43.6 97.4 43.4 96.9 43.6 96.8C43.8 96.7001 44.1 97.4 44.4 97.9C44.7 97.8 44.6 97.3 44.9 97.2C45.1 97.2 45.3 97.7001 45.5 97.8C46.2 98.3 49.6 98.2 51.2 98.4C52.7 98.6 53.8 98 54.8 97C55.4 96.4 56 95.8 56.6 95.2C60.3 91.1 63.1 86.5001 65.6 81.6001C66.7 79.5001 67.9 77.5001 69.3 75.6001C71.7 72.5001 75.1 71.8 78.8 73.4C84.1 75.7 87.7 82.2001 88.8 85.3C89.5 86.5 91.4 88.8 92.3 89.5C93.5 90.5 95.5 91.7001 96.3 92.3C97.2 92.9 97.5 93.6 98.1 94.3C95.4 95.4 94.8 96.5 96 97.9C96.3 97.5 96.1 97.1 96.5 97.2C96.8 97.3 96.9 97.7 97 97.9C97.3 97.9 97.4 97.5 97.7 97.5C98 97.5 98 97.8 98.3 97.8C99.2 98 99.7 98.1 100.6 98.2C102.3 98.3 104 98.1 105.8 98.3C108.8 98.5 109.2 96.9 108.8 94.9C108.4 92.9 107.8 90.9 107.4 89.2C107.1 87.8 107.3 86 107.6 85.3C108.7 82.7001 109.7 80.2 110.8 77.7C111.4 76.3 111.9 75.0001 112.4 73.6001C113.5 70.2001 113.9 66.2 113.4 62.5ZM36.4 60.8C35.8 60.8 35.3 60.2 35.3 59.7C35.3 59.3 35.6 58.7001 36.5 58.6C37.3 58.6 38 59 38.9 59.3C38 59.9 37.2 60.8 36.4 60.8ZM48.1 58.3C48.6 58.4 49.2 58.6 49.2 59.4C49.2 60.2 48.5 60.5 48.1 60.5C47.1 60.5 46.6 59.6 45.8 59C46.7 58.7 47.3 58.2 48.1 58.3ZM53.9 53.4C53.8 53.9 53.7 54.4 53.4 55C52.7 54.6 52.8 54.7 52.2 54.3C52.4 53.9 53 52.7 52.5 52.2C51.4 51.5 48.8 52.9 47.9 52.7C46.7 52.4 46.1 52.2 45.4 51.9C45.3 51.9 45.2 51.9 45 51.9C45.1 51.9 45.2 51.9 45.4 51.9C45.7 51.9 45.9 51.9 46.2 52C48.5 52.6 49 51.7 51 51.1C53.1 50.5 54.2 51.6 53.9 53.4Z" fill="black"></path> <path d="M42.4 66.7001C44 67.1001 45.4 67.4001 46.9 67.8001C48.1 68.1001 48.3001 69.0001 48.1001 70.0001C47.5001 73.1001 44.3 74.8001 40.7 74.0001C38.3 73.4001 36.8 71.7001 36.8 69.5001C36.8 68.7001 37 68.1001 37.9 67.8001C39.3 67.5001 40.8 67.1001 42.4 66.7001ZM39.3 71.2001C41.3 72.1001 43.1 72.3001 45.4 71.2001C43.1 71.2001 41.3 71.2001 39.3 71.2001Z" fill="black"></path> <path d="M39.2 76.7C39.3 76.6 42 77.5 45.1 76.7C45.5 76.6 45.6 77 45.4 77.2C45 77.8 43.5 78.1 42.5 78.1C40.5 78.2 38.3 77.3 39.2 76.7Z" fill="black"></path> <path d="M82.3 72.5C86.2 67.7 91.6001 54.7 91.1001 41.6L98.5001 43.9C98.5001 43.9 98.0001 53.7 95.0001 60.3C90.4001 70.5 85.0001 74.5 85.0001 74.5C85.0001 74.5 84.2001 73.7 83.6001 73.3C83.1001 72.9 82.3 72.5 82.3 72.5Z" fill="white"></path> <path d="M88.2 78C99.1 72.8 104.7 59.8 105.7 48.4C105.7 48.4 107.5 50.8 108.4 52.5C109.3 54.2 110 56.5 110 56.5C110 56.5 108.8 66.7 101.1 73.5C95.4999 78.4 89.8999 81.4 89.8999 81.4C89.8999 81.4 89.4999 80.5 89.0999 79.6C88.5999 78.6 88.2 78 88.2 78Z" fill="white"></path> <path d="M73.7001 70.5C77.7001 57.8 74.1001 43.1 72.8001 40.3C71.5001 37.4 79.8001 38.8 79.8001 38.8C79.8001 38.8 83.2001 47.5 81.9001 56.6C80.9001 63.7 78.0001 70.5 78.0001 70.5C78.0001 70.5 77.0001 70.2 75.9001 70.2C74.7001 70.2 73.7001 70.5 73.7001 70.5Z" fill="white"></path> <path d="M121 14C121.8 12.9 122.4 11.9 122.7 10.9C125.5 3.30001 112.6 -1.99998 96.6 2.80002C77.4 8.70002 65.3 37.9 63.2 44C63.2 44 65.4999 43.7 69.3999 43.1C71.0999 43.9 73.9 44.7 78.2 44.5C91.3 44.1 125.1 35.4 130.2 26.4C132.9 21.6 129.2 16.3 121 14Z" fill="white"></path> <path d="M7.3 124.7C6.5 124.9 5.79999 124.9 5.19999 124.8C4.59999 124.7 3.99999 124.5 3.39999 124.2C3.19999 124.2 3.1 124.1 3 124C2.9 123.9 2.7 123.8 2.6 123.7C1.6 122.9 1 121.8 0.8 120.3C0.6 118.8 0.999997 117.4 2 116.3C2.5 115.8 3 115.5 3.5 115.2C4 114.9 4.59999 114.7 5.19999 114.6C5.39999 114.6 5.5 114.6 5.8 114.6C6 114.6 6.2 114.7 6.5 114.7C6.7 114.8 6.9 114.8 7.1 114.9C7.3 115 7.4 115.1 7.5 115.2C7.5 115.2 7.6 115.2 7.6 115.3C7.7 115.6 7.89999 115.9 7.89999 116.1C7.99999 116.4 8 116.7 8 117.1C8 117.4 7.8 117.8 7.5 118.2C7.2 118.6 6.9 118.9 6.6 119.1C6.5 119.2 6.4 119.2 6.3 119.2C6 119.3 5.69999 119.3 5.39999 119.3C5.09999 119.3 4.89999 119.2 4.69999 119C4.59999 118.9 4.49999 118.8 4.39999 118.7C4.29999 118.6 4.19999 118.5 4.19999 118.4C4.09999 118.2 4.2 118 4.5 117.8C4.5 117.7 4.59999 117.7 4.69999 117.7C4.79999 117.7 4.79999 117.7 4.89999 117.7L5 117.8C5 117.8 5.09999 117.9 5.19999 117.9C5.39999 118 5.6 118 5.8 117.8C6 117.7 6.2 117.5 6.3 117.3C6.5 117 6.49999 116.7 6.39999 116.4C6.29999 116.1 6.1 116 5.8 116C5.6 116 5.3 116 5.1 116C4.9 116 4.59999 116.1 4.39999 116.1C4.09999 116.2 3.9 116.3 3.6 116.5C3.3 116.7 3.2 117 3 117.2C2.9 117.4 2.8 117.6 2.8 117.8C2.7 118.4 2.7 118.9 3 119.4C3.3 119.9 3.49999 120.4 3.69999 121C3.89999 121.7 4.4 122.1 5.1 122.4C5.2 122.4 5.3 122.5 5.5 122.5C5.6 122.5 5.79999 122.6 5.89999 122.6C6.49999 122.7 7.1 122.6 7.8 122.1C7.9 122 8.09999 121.9 8.19999 121.9C8.29999 121.8 8.4 121.7 8.6 121.7C9 121.4 10.7 119.3 13.7 115.2C14.2 114.4 14.8 113.7 15.3 112.9C15.9 112.1 16.4 111.4 17 110.7C17.1 110.6 17.2 110.4 17.3 110.3C17.4 110.2 17.5 110.1 17.6 109.9C18 109.5 19 106.9 19.4 106.5C19.7 106.1 20.7 104.5 21 104.1C22.1 102.8 23.3 101.6 24.6 100.5C24.7 100.5 24.7 100.4 24.8 100.4C24.9 100.4 24.9 100.3 25 100.2C25.2 100.1 25.3 100.1 25.4 100.1C25.5 100.1 25.6 100.1 25.7 100.3C25.8 100.4 25.9 100.6 25.8 100.9C25.7 101.7 25.5 102.4 25.4 103.2C25.3 104.9 24.7 106.4 24.6 107.2C24.5 107.9 23.5 110.2 23.5 110.9C23.5 111.6 23.4 112.2 23.4 112.9C23.4 113 23.4 113.1 23.4 113.2C23.4 113.3 23.5 113.3 23.5 113.3C23.6 113.3 23.7 113.3 23.7 113.3C23.8 113.3 23.8 113.2 23.9 113.2C24 113.1 24.1 113 24.2 112.9C24.3 112.8 24.4 112.7 24.5 112.6C24.9 112.1 25.4 111.6 25.9 111.1C26.4 110.6 26.8 110.1 27.2 109.6C27.9 108.9 29.9 104.8 30.5 103.9C31.1 103.1 31.7 102.3 32.4 101.5C32.5 101.3 32.7 101.1 32.8 100.9C32.9 100.7 33 100.5 33.2 100.3C33.4 100 33.5 99.8 33.8 99.5C33.9 99.4 34 99.3 34.2 99.3C34.4 99.3 34.5 99.3 34.7 99.4C34.8 99.4 34.8 99.5001 34.9 99.6001C34.9 99.7001 35 99.7 34.9 99.8C34.9 99.9 34.9 100 34.8 100.1C34.8 100.2 34.7 100.3 34.7 100.4C34.4 101.4 34.2 102.5 33.9 103.6C33.9 103.9 33.8 104.2 33.7 104.5C33.6 104.8 33.6 105.1 33.6 105.4C33.3 107.4 32.4 109.5 32.4 109.7C32.3 110.1 32 111.6 32 112C31.8 117.1 31.7 119.8 31.7 120C31.7 120.2 31.8 120.5 31.8 120.7C31.9 121 32 121.2 32.2 121.3C32.4 121.5 32.7 121.5 32.9 121.5C33.8 121.5 34.3 121 34.7 120.2C34.7 120.1 34.8 120 34.8 120C34.8 119.9 34.9 119.9 34.9 119.8C35 119.7 35.2 119.6 35.3 119.7C35.4 119.7 35.5 119.8 35.5 119.9C35.6 120.1 35.6 120.2 35.6 120.4C35.6 120.8 35.5 121.2 35.4 121.5C35.3 121.9 35.2 122.2 35 122.5C34.8 122.8 34.6 123.1 34.4 123.4C34.2 123.7 34 123.9 33.7 124.2C33.4 124.5 33 124.7 32.6 124.8C32.3 124.8 32 124.9 31.7 124.8C31.4 124.8 31.1 124.7 30.7 124.7C30.6 124.7 30.5 124.6 30.4 124.6C30.3 124.5 30.2 124.5 30.1 124.4C29.7 124.1 29.4 123.8 29.1 123.4C28.8 123.1 28.6 122.7 28.4 122.2C28.1 121.5 28.1 119.8 28.4 117.2C28.4 117 28.5 116.8 28.6 116.6C29.5 113 29.9 110.9 30 110.4C30.3 108.7 31.5 105.9 31.6 105.3C31.6 105.2 31.6 105.1 31.5 105C31.4 105 31.3 105 31.2 105.1C30.8 105.6 29.7 108.8 28.7 109.9C28.3 110.4 27.9 110.9 27.5 111.4C27 112.1 26.4 112.9 25.9 113.6C25.4 114.3 24.9 115.1 24.3 115.8C23.8 116.4 23.4 117.1 23.1 117.8C22.8 118.5 22.4 119.2 22.1 119.9C22.1 120 22.1 120 22 120.1C22 120.2 21.9 120.2 21.9 120.3C21.8 120.4 21.6 120.5 21.4 120.6C21.3 120.6 21.3 120.6 21.2 120.6C21.1 120.5 21 120.5 21 120.4C21 120.3 20.9 120.1 20.9 120C20.9 119.9 20.8 119.7 20.9 119.6C20.9 118.6 20.9 117.6 21 116.6C21 115.6 21.1 114.6 21.2 113.6C21.2 113.3 21.3 113 21.3 112.7C21.4 112.4 21.4 112.1 21.5 111.7C21.6 111.3 21.6 110.8 21.7 110.4C21.8 109.9 22.7 107.8 22.8 107.4C22.8 107 23.3 104.9 23.4 104.4C23.5 104 23.6 103.6 23.6 103.1V103H23.5C23.4 103 23.4 103.1 23.3 103.1C23.2 103.1 23.2 103.2 23.1 103.2C22.7 103.7 21.8 105.3 21.3 105.8C20.9 106.3 19.7 109 19.3 109.5C19 109.8 18.7 110.2 18.5 110.5C18.2 110.8 17.9 111.2 17.6 111.6C17.2 112.1 16.9 112.6 16.6 113.1C16.3 113.6 15.9 114.1 15.6 114.7C12.5 121.5 9.7 124.7 7.3 124.7Z" fill="black"></path> <path d="M36.9 114C36.9 114.3 36.8 114.6 36.7 114.9C36.6 115.1 36.6 115.3 36.5 115.5C36.4 115.7 36.4 115.9 36.3 116.2C36.3 116.4 36.2 116.5 36.2 116.7C36.2 116.9 36.2 117 36.2 117.2C36.2 117.4 36.3 117.6 36.5 117.7C36.7 117.8 36.9 117.9 37.1 117.9C37.5 117.8 37.9 117.6 38.3 117.2C38.9 116.6 39.4 115.8 39.8 115C40 114.6 40.2 114.2 40.4 113.8C40.6 113.4 40.8 113 41 112.6C41.2 112.3 41.3 112 41.6 111.9C41.7 111.8 41.8 111.8 42 111.9C42.1 112 42.2 112.1 42.2 112.2C42.2 112.5 42.2 112.7 42.2 112.9C42.1 113.1 42.1 113.3 42 113.5C41.9 113.7 41.8 113.9 41.8 114.1C41.5 114.8 41.3 115.5 41.2 116.2C41.1 116.9 41 117.7 41 118.4C41 118.6 41 118.8 41.1 119C41.2 119.2 41.3 119.4 41.4 119.5C41.6 119.8 41.7 120.1 41.5 120.4C41.5 120.5 41.4 120.5 41.4 120.6C41.4 120.6 41.3 120.7 41.3 120.8C41.3 120.9 41.2 120.9 41.1 120.9C41 120.9 40.9 120.9 40.8 120.8C40.7 120.7 40.6 120.5 40.5 120.4C40.4 120.3 40.3 120.1 40.2 120C40.1 119.9 40 119.7 40 119.6C39.9 119.5 39.8 119.3 39.8 119.1C39.7 118.8 39.5 118.8 39.2 119C39.1 119.1 39 119.2 38.9 119.3C38.8 119.4 38.7 119.5 38.6 119.5C38.2 119.7 37.9 119.9 37.5 120C37.2 120.1 36.8 120.1 36.4 120.1C36.2 120.1 36 120 35.8 119.9C35.6 119.8 35.4 119.6 35.3 119.4C35.2 119.3 35.2 119.2 35.1 119.1C35 119 35 118.9 34.9 118.8C34.7 118.5 34.6 118.2 34.6 117.8C34.6 117.5 34.6 117.3 34.7 117.1C34.8 116.7 35 116.3 35.1 115.9C35.2 115.5 35.4 115.1 35.5 114.7C35.5 114.6 35.6 114.5 35.6 114.4C35.6 114.3 35.7 114.2 35.7 114.1C35.8 113.8 35.9 113.6 35.9 113.4C36 113.2 36 113 36 112.9C36 112.7 36 112.6 35.9 112.4C35.8 112.2 35.7 112 35.5 111.7L35.4 111.6C35.4 111.5 35.4 111.5 35.5 111.4C35.6 111.3 35.7 111.3 35.7 111.3C36 111.3 36.3 111.4 36.4 111.6C36.6 111.8 36.7 112 36.8 112.2C36.9 112.4 37 112.7 37.1 112.9C37.1 113 37.1 113 37.1 113.1C37.1 113.2 37.1 113.3 37.1 113.3C37 113.5 37 113.8 36.9 114Z" fill="black"></path> <path d="M47.4 118.7C47.3 118.7 47.3 118.8 47.2 118.9C47 119.2 46.7 119.5 46.5 119.7C46.2 119.9 46 120.1 45.7 120.4C45.5 120.6 45.2 120.7 45 120.7C44.8 120.7 44.6 120.6 44.3 120.5C44.1 120.4 43.9 120.3 43.8 120.2C43.4 119.9 43.1 119.5 43.1 118.9C43.1 118.4 43.1 118 43.1 117.5C43.1 117.1 43.2 116.6 43.3 116.1C43.4 115.7 43.5 115.4 43.6 115C43.7 114.6 43.8 114.3 43.9 113.9C44 113.7 44 113.6 44 113.4C44 113.2 44 113.1 44 112.9C44 112.8 43.9 112.7 43.9 112.6C43.8 112.5 43.8 112.5 43.6 112.5C43.5 112.5 43.4 112.5 43.3 112.5C43.2 112.5 43.1 112.5 43 112.5C42.7 112.5 42.6 112.4 42.5 112.2C42.5 112.1 42.5 111.9 42.5 111.8C42.5 111.7 42.6 111.6 42.7 111.5C42.9 111.4 43.2 111.3 43.5 111.2C43.8 111.1 44 111.1 44.3 111.2C44.9 111.3 45.2 111.7 45.4 112.3C45.4 112.4 45.5 112.6 45.5 112.7C45.5 112.9 45.5 113 45.5 113.2C45.4 113.9 45.3 114.6 45.2 115.3C45.1 115.6 45.1 116 45 116.3C44.9 116.6 44.8 116.9 44.8 117.2C44.8 117.4 44.8 117.5 44.8 117.7C44.8 117.9 44.8 118 44.8 118.1C44.8 118.2 44.8 118.3 44.9 118.3C44.9 118.4 45 118.4 45.1 118.4C45.3 118.4 45.4 118.4 45.5 118.3C45.6 118.2 45.7 118.1 45.8 118C45.9 117.9 46 117.8 46.1 117.7C46.2 117.5 46.4 117.3 46.5 117.1C46.6 116.9 46.7 116.7 46.8 116.5C47.1 115.8 47.5 115.1 47.9 114.4C48.3 113.7 48.5 113 48.7 112.2C48.8 111.9 49 111.7 49.5 111.7C49.6 111.7 49.8 111.8 49.9 111.9C49.9 112 50 112.1 50 112.2C50 112.3 50 112.4 50 112.6C49.8 113.2 49.6 113.8 49.5 114.4C49.4 115 49.3 115.7 49.2 116.3C49.1 116.6 49.1 117 49.2 117.4C49.3 117.7 49.4 117.8 49.7 117.9C50 118 50.2 118 50.4 117.8C50.5 117.8 50.6 117.7 50.6 117.6C50.7 117.5 50.7 117.5 50.8 117.4C51.2 116.9 51.6 116.5 51.9 115.9C52.2 115.4 52.5 114.8 52.7 114.3C52.8 113.9 53 113.6 53.1 113.2C53.2 112.9 53.4 112.5 53.5 112.2C53.6 112 53.7 111.9 53.7 111.7C53.8 111.5 53.9 111.4 54.1 111.3C54.2 111.2 54.3 111.2 54.4 111.2C54.5 111.2 54.6 111.3 54.6 111.4C54.6 111.5 54.7 111.7 54.7 111.8C54.7 111.9 54.7 112.1 54.7 112.2C54.5 112.9 54.4 113.5 54.2 114.2C54 114.9 53.9 115.5 53.7 116.2C53.7 116.4 53.6 116.6 53.6 116.8C53.6 117 53.5 117.2 53.6 117.4C53.6 117.6 53.6 117.8 53.7 118.1C53.7 118.3 53.8 118.5 54 118.7C54.1 118.8 54.1 118.9 54.2 119C54.2 119.1 54.3 119.2 54.3 119.3C54.3 119.4 54.3 119.4 54.3 119.5C54.3 119.6 54.2 119.6 54.2 119.7C53.9 120 53.5 120.1 53.1 120C52.9 120 52.8 119.9 52.7 119.8C52.5 119.6 52.3 119.3 52.1 118.9C52.1 118.8 52 118.7 52 118.6C52 118.5 51.9 118.4 51.8 118.3C51.6 118.4 51.5 118.5 51.5 118.6C51.4 118.7 51.3 118.9 51.3 119C51.1 119.3 50.8 119.6 50.4 119.8C50.3 119.8 50.3 119.9 50.2 119.9C50.1 119.9 50.1 120 50 120C49.8 120 49.5 120 49.3 120C49.1 120 48.8 120 48.5 120C48.4 120 48.2 119.9 48.1 119.8C48 119.7 47.9 119.6 47.8 119.5C47.7 119.3 47.6 119.2 47.6 119C47.5 118.8 47.5 118.7 47.4 118.5C47.6 118.6 47.5 118.7 47.4 118.7Z" fill="black"></path> <path d="M58.7 114C58.7 114.3 58.6 114.6 58.5 114.9C58.4 115.1 58.4 115.3 58.3 115.5C58.2 115.7 58.2 115.9 58.1 116.2C58.1 116.4 58 116.5 58 116.7C58 116.9 58 117 58 117.2C58 117.4 58.1 117.6 58.3 117.7C58.5 117.8 58.7 117.9 58.9 117.9C59.3 117.8 59.7 117.6 60.1 117.2C60.7 116.6 61.2 115.8 61.6 115C61.8 114.6 62 114.2 62.2 113.8C62.4 113.4 62.6 113 62.8 112.6C63 112.3 63.1 112 63.4 111.9C63.5 111.8 63.6 111.8 63.8 111.9C63.9 112 64 112.1 64 112.2C64 112.5 64 112.7 64 112.9C63.9 113.1 63.9 113.3 63.8 113.5C63.7 113.7 63.6 113.9 63.6 114.1C63.3 114.8 63.1 115.5 63 116.2C62.9 116.9 62.8 117.7 62.8 118.4C62.8 118.6 62.8 118.8 62.9 119C63 119.2 63.1 119.4 63.2 119.5C63.4 119.8 63.5 120.1 63.3 120.4C63.3 120.5 63.2 120.5 63.2 120.6C63.2 120.6 63.1 120.7 63.1 120.8C63.1 120.9 63 120.9 62.9 120.9C62.8 120.9 62.7 120.9 62.6 120.8C62.5 120.7 62.4 120.5 62.3 120.4C62.2 120.3 62.1 120.1 62 120C61.9 119.9 61.8 119.7 61.8 119.6C61.7 119.5 61.6 119.3 61.6 119.1C61.5 118.8 61.3 118.8 61 119C60.9 119.1 60.8 119.2 60.7 119.3C60.6 119.4 60.5 119.5 60.4 119.5C60 119.7 59.7 119.9 59.3 120C59 120.1 58.6 120.1 58.2 120.1C58 120.1 57.8 120 57.6 119.9C57.4 119.8 57.2 119.6 57.1 119.4C57 119.3 57 119.2 56.9 119.1C56.8 119 56.8 118.9 56.7 118.8C56.5 118.5 56.4 118.2 56.4 117.8C56.4 117.5 56.4 117.3 56.5 117.1C56.6 116.7 56.8 116.3 56.9 115.9C57 115.5 57.2 115.1 57.3 114.7C57.3 114.6 57.4 114.5 57.4 114.4C57.4 114.3 57.5 114.2 57.5 114.1C57.6 113.8 57.7 113.6 57.7 113.4C57.7 113.2 57.8 113 57.8 112.9C57.8 112.7 57.8 112.6 57.7 112.4C57.6 112.2 57.5 112 57.3 111.7L57.2 111.6C57.2 111.5 57.2 111.5 57.3 111.4C57.4 111.3 57.5 111.3 57.5 111.3C57.8 111.3 58.1 111.4 58.2 111.6C58.4 111.8 58.5 112 58.6 112.2C58.7 112.4 58.8 112.7 58.9 112.9C58.9 113 58.9 113 58.9 113.1C58.9 113.2 58.9 113.3 58.9 113.3C58.8 113.5 58.7 113.8 58.7 114Z" fill="black"></path> <path d="M66.8 117.4C66.6 117.6 66.5 117.9 66.3 118.1C66.1 118.5 65.8 119 65.5 119.5C65.4 119.7 65.2 119.8 65 120C64.8 120 64.7 120.1 64.6 120.1C64.5 120.1 64.4 120.1 64.3 120.1C64.2 120 64.2 120 64.1 119.9C64.1 119.8 64 119.7 64.1 119.6C64.1 119.5 64.2 119.4 64.2 119.3C64.2 119.2 64.3 119.1 64.3 119C64.7 118.4 65 117.9 65.3 117.3C65.5 116.7 65.8 116.1 66 115.4C66.1 115.1 66.2 114.8 66.3 114.4C66.4 114.1 66.4 113.7 66.4 113.4C66.4 113.2 66.4 113 66.5 112.7C66.5 112.5 66.6 112.3 66.6 112C66.6 111.9 66.7 111.8 66.7 111.8C66.7 111.7 66.8 111.7 66.8 111.6C66.9 111.5 67 111.4 67.1 111.4C67.2 111.3 67.3 111.3 67.4 111.3C67.5 111.3 67.6 111.3 67.7 111.4C67.8 111.5 67.9 111.6 67.9 111.7C67.9 111.8 67.9 111.9 67.9 112C67.9 112.1 67.9 112.2 68 112.3C68 112.5 68 112.7 68 112.9C68 113.1 67.8 113.6 67.6 114.5C67.8 114.4 68.2 114.4 68.8 114.4H69.8C70.1 114.4 70.5 114.1 70.9 113.3C71.3 112.5 71.6 112.1 71.9 111.9C72 111.9 72 111.8 72.1 111.8C72.2 111.8 72.2 111.8 72.3 111.7C72.4 111.7 72.5 111.7 72.6 111.7C72.7 111.7 72.8 111.8 72.8 111.9C72.9 112.1 72.9 112.2 72.8 112.4C72.8 112.5 72.7 112.6 72.7 112.6C72.5 112.7 72.4 112.9 72.3 113.1C72.2 113.3 72.1 113.5 72.1 113.7C71.9 114.2 71.7 114.6 71.6 115.1C71.4 115.6 71.2 116 71.1 116.5C71 116.7 71 116.9 70.9 117.1C70.9 117.3 70.8 117.5 70.8 117.7C70.8 118 70.9 118.3 71.2 118.4C71.3 118.4 71.4 118.5 71.4 118.5C71.5 118.5 71.6 118.6 71.6 118.6C71.8 118.7 71.9 118.8 71.9 119C71.9 119.2 71.9 119.4 71.7 119.5C71.6 119.7 71.4 119.8 71.2 119.9C71.1 119.9 70.9 120 70.8 120C70.7 120 70.5 120 70.4 120C70 120 69.6 119.9 69.4 119.6C69.1 119.3 69 119 69.1 118.7C69.1 118.2 69.2 117.7 69.3 117.1C69.4 116.6 69.4 116.2 69.5 115.9C69.5 115.8 69 115.8 67.8 115.9C67.4 116.1 67.1 116.6 66.8 117.4Z" fill="black"></path> <path d="M80.3999 120.5C80.1999 120.5 80.0999 120.6 79.8999 120.6C79.3999 120.7 78.8999 120.5 78.5999 120.1C78.4999 119.9 78.3 119.7 78.2 119.5C78.2 119.4 78.0999 119.4 77.9999 119.4C77.8999 119.4 77.8 119.4 77.7 119.5C77.6 119.5 77.4999 119.6 77.3999 119.7C77.2999 119.8 77.1999 119.8 77.0999 119.9C76.4999 120.4 75.7999 120.6 75.0999 120.4H74.9999C74.6999 120.4 74.3999 120.3 74.0999 120.2C73.8999 120 73.5999 119.8 73.4999 119.6C73.2999 119.2 73.0999 118.9 72.8999 118.5C72.7999 118.1 72.7 117.7 72.7 117.3C72.7 117.2 72.7 117 72.7 116.9C72.7 116.8 72.7 116.6 72.7 116.5C72.7 116.3 72.6999 116.1 72.7999 116C72.9999 115.7 73.0999 115.3 73.2999 115C73.4999 114.7 73.5999 114.4 73.7999 114C73.9999 113.7 74.1999 113.5 74.4999 113.3C74.7999 113.1 74.9999 113 75.2999 112.8C76.0999 112.4 76.8999 112.2 77.7999 112.1C78.5999 112 79.4999 112.1 80.3999 112.4C80.5999 112.4 80.7 112.6 80.7 112.8C80.7 113 80.7999 113.2 80.7999 113.5C80.7999 114 80.6999 114.5 80.5999 114.9C80.4999 115.4 80.2999 115.8 80.0999 116.3C79.9999 116.6 79.8999 116.8 79.7999 117.1C79.6999 117.4 79.5999 117.7 79.4999 118C79.3999 118.2 79.3999 118.4 79.3999 118.6C79.3999 118.8 79.3999 119 79.4999 119.2C79.4999 119.4 79.5999 119.5 79.7999 119.6C79.8999 119.6 80.1 119.6 80.2 119.5C80.3 119.4 80.3999 119.3 80.3999 119.3C80.4999 119.2 80.5999 119.1 80.5999 119.1C80.6999 119.1 80.7999 119 80.7999 119C80.8999 119 80.9999 118.9 80.9999 118.9C81.1999 118.9 81.3999 118.9 81.4999 119C81.5999 119.1 81.6999 119.3 81.5999 119.5C81.5999 119.6 81.5999 119.6 81.4999 119.7C81.4999 119.8 81.3999 119.8 81.3999 119.9C81.1999 120.3 80.8999 120.6 80.5999 120.8C80.6999 120.5 80.4999 120.5 80.3999 120.5ZM76.9999 113.6C76.6999 113.8 76.5 114 76.2 114.1C75.9 114.3 75.6999 114.5 75.5999 114.8C75.2999 115.3 75.0999 115.9 74.8999 116.5C74.7999 116.7 74.7999 117 74.8999 117.2C74.9999 117.4 75.0999 117.6 75.2999 117.7C75.4999 117.8 75.5999 117.9 75.7999 118C76.0999 118.2 76.4999 118.2 76.7999 118C77.1999 117.8 77.5999 117.5 77.7999 117.1C78.0999 116.7 78.2999 116.3 78.4999 115.9C78.6999 115.6 78.7999 115.2 78.8999 114.9C78.9999 114.5 79.1 114.2 79.2 113.8C79.3 113.7 79.3 113.5 79.2 113.4C79.2 113.3 79.0999 113.2 78.9999 113.1H78.8999C78.7999 113.1 78.8 113.1 78.7 113.1C78.2 113.1 77.5999 113.3 76.9999 113.6Z" fill="black"></path> <path d="M81.8999 99.7C82.1999 99.7 82.5 99.7 82.7 99.8C83.1 99.9 83.4999 100.1 83.8999 100.3C84.2999 100.5 84.6999 100.7 84.9999 101C85.2999 101.2 85.5999 101.5 85.8999 101.7C86.1999 102 86.4999 102.2 86.7999 102.5C87.2999 103 87.6999 103.5 87.8999 104.1C88.1999 104.7 88.2999 105.3 88.3999 106C88.3999 106.2 88.3999 106.3 88.4999 106.5C88.4999 106.7 88.4999 106.8 88.4999 107C88.4999 107 88.4999 107.1 88.5999 107.1C88.5999 107.1 88.6999 107.1 88.7999 107.1C88.8999 107.1 88.8999 107.1 88.8999 107.1C88.9999 107 89.0999 106.8 89.2999 106.7C89.3999 106.6 89.5 106.4 89.7 106.3C90 105.9 90.3999 105.4 90.7999 105.1C91.1999 104.7 91.5999 104.4 91.8999 104C91.9999 103.9 91.9999 103.9 92.0999 103.8C92.1999 103.7 92.1999 103.7 92.2999 103.6C92.8999 103.2 93.4999 102.7 94.0999 102.3C94.6999 101.9 95.3999 101.6 96.0999 101.4C96.3999 101.3 96.7999 101.2 97.0999 101.1C97.2999 101.1 97.5 101.1 97.7 101.1C98.1 101.2 98.2999 101.4 98.2999 101.7C98.2999 101.9 98.2999 102.1 98.2999 102.2C98.2999 102.4 98.1999 102.5 98.0999 102.7C97.9999 103 97.8 103.3 97.7 103.5C97.6 103.8 97.4 104 97.2 104.3C96.9 104.9 96.5999 105.4 96.2999 105.9C95.9999 106.4 95.7999 107 95.4999 107.6C95.2999 108.2 94.9999 108.7 94.7999 109.2C94.4999 109.7 94.2999 110.3 94.0999 110.8C93.8999 111.4 93.5999 111.9 93.3999 112.5C93.1999 113.1 92.9 113.6 92.7 114.2C92.6 114.4 92.5999 114.6 92.4999 114.8C92.4999 115 92.3999 115.2 92.2999 115.4C92.0999 116.3 91.9 117.1 91.7 117.9C91.5 118.7 91.3999 119.6 91.4999 120.5C91.4999 120.6 91.4999 120.7 91.4999 120.8C91.4999 120.9 91.4999 121 91.4999 121.1C91.4999 121.5 91.6999 121.8 91.8999 122.1C92.1999 122.4 92.4999 122.6 92.8999 122.7C93.0999 122.8 93.2999 122.8 93.4999 122.7C93.9999 122.6 94.3999 122.4 94.7999 122.2C95.1999 122 95.5999 121.6 95.8999 121.2C95.9999 121 96.1999 121 96.3999 121C96.5999 121.1 96.6999 121.2 96.7999 121.4C96.7999 121.4 96.7999 121.5 96.8999 121.5C96.8999 121.5 96.8999 121.6 96.9999 121.6C97.0999 121.7 97.0999 121.8 97.0999 121.9C97.0999 122 96.9999 122.1 96.9999 122.2C96.2999 123.1 95.4 123.8 94.2 124.1C94.1 124.1 93.9999 124.2 93.7999 124.2C93.6999 124.2 93.5999 124.3 93.3999 124.3C92.9999 124.5 92.6 124.5 92.2 124.3C91.8 124.2 91.5 124 91.2 123.6L91.0999 123.5L90.9999 123.4C90.5999 123 90.2999 122.6 90.0999 122.1C89.8999 121.7 89.7999 121.2 89.7999 120.6C89.7999 120.4 89.7999 120.2 89.7999 120C89.7999 119.8 89.7999 119.6 89.7999 119.4C89.8999 118.6 89.9999 117.9 90.0999 117.1C90.1999 116.3 90.4 115.6 90.7 114.8C90.8 114.5 90.8999 114.2 90.9999 113.9C91.0999 113.6 91.1999 113.3 91.2999 113C91.4999 112.4 91.6999 111.9 91.9999 111.3C92.1999 110.8 92.5 110.2 92.7 109.7C93 109.1 93.2999 108.4 93.5999 107.8C93.8999 107.2 94.1999 106.5 94.5999 105.9C94.6999 105.7 94.7999 105.5 94.8999 105.3C94.9999 105.1 95.0999 104.9 95.0999 104.7V104.6C95.0999 104.5 94.9999 104.5 94.9999 104.5C94.8999 104.4 94.8 104.4 94.7 104.4C94.6 104.4 94.4999 104.5 94.2999 104.5C94.1999 104.5 94.0999 104.6 93.9999 104.7C93.8999 104.7 93.8 104.8 93.7 104.9C93.6 105 93.4999 105.1 93.3999 105.1C92.6999 105.6 91.9999 106.1 91.3999 106.7C90.7999 107.3 90.2 107.9 89.7 108.6C89.2 109.3 88.7999 110 88.3999 110.7C87.9999 111.4 87.6999 112.2 87.3999 113C87.0999 113.9 86.7999 114.8 86.3999 115.7C86.0999 116.6 85.6999 117.4 85.3999 118.3C85.2999 118.6 85.1999 119 84.9999 119.3C84.8999 119.6 84.7999 120 84.5999 120.3C84.3999 120.8 84.2999 121.2 84.0999 121.7C83.9999 122.2 83.7999 122.6 83.5999 123.1C83.4999 123.4 83.2999 123.5 83.0999 123.6C82.8999 123.7 82.6999 123.6 82.3999 123.4C82.3999 123.4 82.2999 123.4 82.2999 123.3C82.0999 123.2 81.9999 123 81.8999 122.9C81.7999 122.7 81.7999 122.6 81.8999 122.4C82.0999 121.9 82.1999 121.5 82.2999 121C82.3999 120.5 82.5999 120.1 82.7999 119.7C82.9999 119.2 83.2999 118.7 83.4999 118.1C83.6999 117.6 83.8999 117 84.0999 116.5C84.2999 116 84.4999 115.4 84.5999 114.9C84.7999 114.4 84.8999 113.8 85.0999 113.3V113.2V113.1C85.2999 112 85.3999 111 85.4999 109.9C85.5999 108.8 85.5999 107.8 85.3999 106.7C85.3999 106.5 85.3 106.2 85.2 106C85.1 105.8 84.9999 105.6 84.8999 105.4C84.3999 104.5 83.7999 103.7 82.9999 102.9C82.6999 102.6 82.3999 102.3 82.0999 102.1C81.7999 101.9 81.3999 101.7 80.9999 101.6C80.2999 101.4 79.5999 101.4 78.9999 101.5C78.2999 101.6 77.6999 101.9 77.0999 102.3C76.6999 102.6 76.4 102.9 76.2 103.3C76 103.7 75.8 104.1 75.7 104.5C75.7 104.6 75.7 104.6 75.7 104.7V104.8C75.7 104.9 75.6999 105 75.5999 105.1C75.5999 105.2 75.5999 105.3 75.4999 105.4C75.4999 105.5 75.4999 105.6 75.4999 105.7C75.4999 105.8 75.6 105.9 75.7 106C75.9 106.3 76.1999 106.5 76.4999 106.6C76.7999 106.7 77.0999 106.8 77.4999 106.7C77.6999 106.7 77.8999 106.6 78.0999 106.6C78.2999 106.6 78.5 106.5 78.7 106.5C78.9 106.5 78.9999 106.3 79.0999 106.1C79.1999 105.9 79.1999 105.7 78.9999 105.5C78.9999 105.4 78.8999 105.3 78.7999 105.3C78.6999 105.2 78.5999 105.2 78.4999 105.2C78.2999 105.2 78.1999 105.2 77.9999 105.3C77.7999 105.3 77.5999 105.4 77.4999 105.4C77.3999 105.4 77.3999 105.4 77.2999 105.4C77.1999 105.4 77.1999 105.3 77.0999 105.3C76.9999 105.3 76.9999 105.2 76.8999 105.1C76.8999 105 76.7999 104.9 76.8999 104.9C77.0999 104.3 77.4999 103.9 77.9999 103.7C78.1999 103.6 78.2999 103.6 78.4999 103.5C78.6999 103.5 78.8999 103.5 79.0999 103.5C79.2999 103.5 79.5 103.6 79.7 103.7C79.9 103.8 80 103.9 80.2 104C80.6 104.3 80.7999 104.8 80.7999 105.3C80.7999 105.7 80.7999 106.1 80.5999 106.5C80.4999 106.9 80.2999 107.2 80.0999 107.5C79.8999 107.8 79.6999 108 79.4999 108.1C79.2999 108.3 79 108.4 78.7 108.4C78.4 108.5 78.0999 108.5 77.7999 108.5C76.7999 108.5 75.9999 108.4 75.3999 107.9C74.7999 107.5 74.2999 106.9 73.8999 106.1C73.7999 105.8 73.7 105.6 73.7 105.3C73.7 105 73.6999 104.7 73.7999 104.4C73.8999 103.8 74.0999 103.2 74.2999 102.7C74.4999 102.2 74.8999 101.7 75.2999 101.2C75.4999 101 75.6999 100.8 75.8999 100.7C76.0999 100.6 76.2999 100.4 76.5999 100.3C77.2999 99.9 78.0999 99.7 78.9999 99.5C79.8999 99.3 80.5999 99.3 81.2999 99.3C81.3999 99.7 81.5999 99.8 81.8999 99.7Z" fill="black"></path> <path d="M101 120.5C100.8 120.5 100.7 120.6 100.5 120.6C99.9999 120.7 99.5 120.5 99.2 120.1C99.1 119.9 98.8999 119.7 98.7999 119.5C98.7999 119.4 98.6999 119.4 98.5999 119.4C98.4999 119.4 98.3999 119.4 98.2999 119.5C98.1999 119.5 98.0999 119.6 97.9999 119.7C97.8999 119.8 97.8 119.8 97.7 119.9C97.1 120.4 96.4 120.6 95.7 120.4H95.5999C95.2999 120.4 95 120.3 94.7 120.2C94.5 120 94.1999 119.8 94.0999 119.6C93.8999 119.2 93.6999 118.9 93.4999 118.5C93.3999 118.1 93.2999 117.7 93.2999 117.3C93.2999 117.2 93.2999 117 93.2999 116.9C93.2999 116.8 93.2999 116.6 93.2999 116.5C93.2999 116.3 93.2999 116.1 93.3999 116C93.5999 115.7 93.6999 115.3 93.8999 115C94.0999 114.7 94.1999 114.4 94.3999 114C94.5999 113.7 94.7999 113.5 95.0999 113.3C95.3999 113.1 95.5999 113 95.8999 112.8C96.6999 112.4 97.4999 112.2 98.3999 112.1C99.1999 112 100.1 112.1 101 112.4C101.2 112.4 101.3 112.6 101.3 112.8C101.3 113 101.4 113.2 101.4 113.5C101.4 114 101.3 114.5 101.2 114.9C101.1 115.4 100.9 115.8 100.7 116.3C100.6 116.6 100.5 116.8 100.4 117.1C100.3 117.4 100.2 117.7 100.1 118C99.9999 118.2 99.9999 118.4 99.9999 118.6C99.9999 118.8 99.9999 119 100.1 119.2C100.1 119.4 100.2 119.5 100.4 119.6C100.5 119.6 100.7 119.6 100.8 119.5C100.9 119.4 101 119.3 101 119.3C101.1 119.2 101.2 119.1 101.2 119.1C101.3 119.1 101.4 119 101.4 119C101.5 119 101.6 118.9 101.6 118.9C101.8 118.9 102 118.9 102.1 119C102.2 119.1 102.3 119.3 102.2 119.5C102.2 119.6 102.2 119.6 102.1 119.7C102.1 119.8 102 119.8 102 119.9C101.8 120.3 101.5 120.6 101.2 120.8C101.3 120.5 101.2 120.5 101 120.5ZM97.7 113.6C97.4 113.8 97.1999 114 96.8999 114.1C96.5999 114.3 96.3999 114.5 96.2999 114.8C95.9999 115.3 95.7999 115.9 95.5999 116.5C95.4999 116.7 95.4999 117 95.5999 117.2C95.6999 117.4 95.7999 117.6 95.9999 117.7C96.1999 117.8 96.2999 117.9 96.4999 118C96.7999 118.2 97.1999 118.2 97.4999 118C97.8999 117.8 98.2999 117.5 98.4999 117.1C98.7999 116.7 99 116.3 99.2 115.9C99.4 115.6 99.4999 115.2 99.5999 114.9C99.6999 114.5 99.7999 114.2 99.8999 113.8C99.9999 113.7 99.9999 113.5 99.8999 113.4C99.8999 113.3 99.8 113.2 99.7 113.1H99.5999C99.4999 113.1 99.4999 113.1 99.3999 113.1C98.7999 113.1 98.3 113.3 97.7 113.6Z" fill="black"></path> <path d="M104.3 117.7C104.6 118.3 105 118.7 105.7 118.7C106.1 118.7 106.4 118.7 106.7 118.6C106.9 118.5 107.1 118.5 107.3 118.5C107.5 118.5 107.7 118.5 108 118.4C108.1 118.4 108.2 118.4 108.2 118.5C108.3 118.5 108.4 118.6 108.4 118.6C108.5 118.6 108.6 118.7 108.6 118.9C108.6 119.1 108.5 119.2 108.4 119.3C108 119.5 107.6 119.7 107.2 119.9C106.8 120 106.3 120.1 105.9 120.1C105.7 120.1 105.4 120.1 105.2 120C104.9 120 104.6 119.8 104.4 119.6C104.2 119.4 104 119.2 103.8 118.9C103.6 118.7 103.5 118.4 103.4 118.1C103.3 117.8 103.2 117.5 103.1 117.1C103 116.8 103 116.4 103 116.1C103 115.8 103 115.5 103.1 115.2C103.1 115.1 103.2 115 103.2 114.9C103.2 114.8 103.2 114.7 103.2 114.6C103.3 114.2 103.4 113.8 103.7 113.5C103.8 113.3 104 113.2 104.1 113C104.2 112.9 104.4 112.7 104.5 112.6C104.7 112.4 104.9 112.3 105.1 112.2C105.3 112.1 105.5 112 105.8 111.9C105.9 111.9 106.1 111.8 106.2 111.8C106.3 111.8 106.5 111.8 106.6 111.7C106.9 111.6 107.1 111.6 107.4 111.7C107.7 111.8 108 111.9 108.2 112.1C108.4 112.3 108.7 112.5 108.8 112.7C109 112.9 109.1 113.2 109.2 113.4C109.3 113.9 109.2 114.3 108.9 114.7C108.8 114.8 108.7 114.9 108.6 115C108.5 115.1 108.4 115.2 108.3 115.2C108.2 115.2 108.1 115.3 108.1 115.3C108 115.3 107.9 115.3 107.9 115.3C107.8 115.3 107.7 115.3 107.6 115.2C107.5 115.1 107.5 115 107.4 115C107.4 114.9 107.4 114.7 107.4 114.6C107.4 114.5 107.4 114.3 107.4 114.2C107.4 114 107.3 113.8 107.2 113.7C107.1 113.6 106.9 113.5 106.7 113.5C106.6 113.5 106.5 113.5 106.3 113.5C106.2 113.5 106.1 113.5 105.9 113.5C105.3 113.7 104.8 114 104.5 114.6C104.3 114.9 104.2 115.2 104.2 115.5C104.1 115.8 104.1 116.1 104.1 116.3C104.1 116.9 104.2 117.4 104.3 117.7Z" fill="black"></path> <path d="M112.9 116C112.7 116 112.5 116 112.3 115.9C112.2 115.9 112.2 115.9 112.1 115.8C112 115.8 112 115.7 111.9 115.7C111.9 115.7 111.8 115.6 111.8 115.5C111.8 115.4 111.8 115.3 111.9 115.3C112 115.3 112 115.2 112.1 115.2C112.2 115.2 112.2 115.2 112.3 115.2C112.7 115.2 113 115.2 113.4 115.2C113.9 115.2 114.2 115.1 114.5 114.9C114.8 114.7 115 114.3 115.2 113.9C115.2 113.8 115.2 113.8 115.2 113.7C115.2 113.6 115.2 113.6 115.2 113.5C115.1 113.2 114.9 113 114.6 112.9C114.4 112.8 114.2 112.8 114 112.8C113.8 112.8 113.6 112.8 113.4 112.9C113.2 113 113 113.1 112.8 113.3C112.6 113.4 112.5 113.6 112.3 113.8C112.1 114 112 114.3 111.8 114.5C111.7 114.7 111.5 115 111.4 115.3C111.2 115.6 111.2 116 111.1 116.3C111.1 116.6 111.1 117 111.1 117.3C111.1 117.5 111.2 117.7 111.3 117.9C111.4 118.1 111.6 118.2 111.7 118.4L111.8 118.5L111.9 118.6C112.6 119.1 113.3 119.1 114 118.6C114.2 118.5 114.3 118.4 114.5 118.4C114.7 118.4 114.8 118.4 115 118.4C115.1 118.4 115.1 118.5 115.2 118.5C115.3 118.6 115.3 118.6 115.3 118.7C115.3 118.8 115.2 118.9 115.2 118.9C115.2 119 115.2 119 115.1 119.1C114.9 119.2 114.8 119.4 114.6 119.5C114.4 119.6 114.2 119.8 114 119.9C113.7 120.1 113.5 120.2 113.2 120.2C112.9 120.3 112.6 120.3 112.3 120.2H112.2H112.1C111.7 120.2 111.3 120.1 110.9 119.9C110.6 119.7 110.2 119.4 110 119.1C110 119 109.9 119 109.9 118.9C109.9 118.8 109.8 118.8 109.7 118.7C109.3 118.3 109.1 117.9 109.1 117.5C109.1 117.1 109.1 116.6 109.3 116.2C109.5 115.6 109.8 115 110.2 114.4C110.6 113.8 111 113.3 111.5 112.9C111.8 112.6 112.1 112.4 112.5 112.3C112.8 112.2 113.2 112.1 113.6 112C113.7 112 113.8 112 113.9 112C114 112 114.1 112 114.2 112C114.7 112 115.3 112.2 115.8 112.5C116.1 112.7 116.4 113 116.6 113.3C116.8 113.5 116.8 113.8 116.8 114.1C116.8 114.3 116.7 114.5 116.6 114.7C116.5 114.9 116.4 115.1 116.3 115.2C116 115.6 115.7 115.9 115.2 116C114.8 116.1 114.5 116.2 114.1 116.2C113.7 116.3 113.4 116.3 113 116.3C113.3 116 113.1 116 112.9 116Z" fill="black"></path> <path d="M120.3 115.6C120.5 115.7 120.7 115.9 120.9 116.1C121.3 116.5 121.5 117.1 121.5 117.8V117.9C121.6 118.2 121.7 118.4 121.8 118.6C121.9 118.8 122 118.9 122.1 119C122.2 119.1 122.4 119.1 122.6 119.1C122.8 119.1 123 119.1 123.4 119C123.6 119 123.7 118.9 123.9 118.9C124.1 118.9 124.2 118.8 124.4 118.8C124.7 118.8 124.9 118.8 124.9 119C124.9 119.1 124.9 119.2 124.9 119.3C124.9 119.4 124.8 119.5 124.8 119.6C124.6 119.8 124.3 119.9 124 120C123.7 120.1 123.5 120.2 123.2 120.1H123C122.7 120.1 122.4 120.1 122.2 120C122 119.9 121.7 119.7 121.5 119.5C121.3 119.3 121.2 119.1 121 119C120.9 118.8 120.8 118.6 120.7 118.4C120.7 118.3 120.6 118 120.4 117.5C120.2 117 120 116.7 119.6 116.6C119.2 116.4 118.9 116.7 118.5 117.4C118.2 118 117.9 118.7 117.6 119.4L117.5 119.8C117.4 119.9 117.3 120 117.1 120.1C116.9 120.2 116.7 120.1 116.6 120.1L116.5 120C116.5 120 116.5 119.9 116.4 119.9C116.4 119.8 116.4 119.7 116.4 119.7C116.4 119.6 116.4 119.5 116.5 119.5C116.8 118.6 117.1 117.8 117.4 116.9C117.7 116 118 115.2 118.3 114.3C118.4 113.9 118.6 113.4 118.7 113C118.8 112.6 119 112.3 119.1 112.1C119.2 111.9 119.5 111.9 120 112.1L119.7 114.2L119.9 114C120.2 113.8 120.5 113.6 120.8 113.4C121.1 113.2 121.3 113 121.6 112.7C122.3 112.2 122.9 112 123.5 112.2C123.6 112.2 123.7 112.3 123.8 112.3C123.9 112.3 124 112.4 124.1 112.4C124.3 112.5 124.4 112.6 124.4 112.8C124.4 113 124.4 113.1 124.3 113.3C124.3 113.3 124.2 113.4 124.1 113.4C124 113.4 124 113.5 123.9 113.5C123.4 113.5 122.9 113.6 122.5 113.9C122.1 114.1 121.7 114.4 121.3 114.8C121 115.1 120.8 115.3 120.5 115.6C120.4 115.4 120.4 115.5 120.3 115.6Z" fill="black"></path> <path d="M132.8 120.5C132.6 120.5 132.5 120.6 132.3 120.6C131.8 120.7 131.3 120.5 131 120.1C130.9 119.9 130.7 119.7 130.6 119.5C130.6 119.4 130.5 119.4 130.4 119.4C130.3 119.4 130.2 119.4 130.1 119.5C130 119.5 129.9 119.6 129.8 119.7C129.7 119.8 129.6 119.8 129.5 119.9C128.9 120.4 128.2 120.6 127.5 120.4H127.4C127.1 120.4 126.8 120.3 126.5 120.2C126.3 120 126 119.8 125.9 119.6C125.7 119.2 125.5 118.9 125.3 118.5C125.2 118.1 125.1 117.7 125.1 117.3C125.1 117.2 125.1 117 125.1 116.9C125.1 116.8 125.1 116.6 125.1 116.5C125.1 116.3 125.1 116.1 125.2 116C125.4 115.7 125.5 115.3 125.7 115C125.9 114.7 126 114.4 126.2 114C126.4 113.7 126.6 113.5 126.9 113.3C127.2 113.1 127.4 113 127.7 112.8C128.5 112.4 129.3 112.2 130.2 112.1C131 112 131.9 112.1 132.8 112.4C133 112.4 133.1 112.6 133.1 112.8C133.1 113 133.2 113.2 133.2 113.5C133.2 114 133.1 114.5 133 114.9C132.9 115.4 132.7 115.8 132.5 116.3C132.4 116.6 132.3 116.8 132.2 117.1C132.1 117.4 132 117.7 131.9 118C131.8 118.2 131.8 118.4 131.8 118.6C131.8 118.8 131.8 119 131.9 119.2C131.9 119.4 132 119.5 132.2 119.6C132.3 119.6 132.5 119.6 132.6 119.5C132.7 119.4 132.8 119.3 132.8 119.3C132.9 119.2 133 119.1 133 119.1C133.1 119.1 133.2 119 133.2 119C133.3 119 133.4 118.9 133.4 118.9C133.6 118.9 133.8 118.9 133.9 119C134 119.1 134.1 119.3 134 119.5C134 119.6 134 119.6 133.9 119.7C133.9 119.8 133.8 119.8 133.8 119.9C133.6 120.3 133.3 120.6 133 120.8C133.1 120.5 133 120.5 132.8 120.5ZM129.5 113.6C129.2 113.8 129 114 128.7 114.1C128.4 114.3 128.2 114.5 128.1 114.8C127.8 115.3 127.6 115.9 127.4 116.5C127.3 116.7 127.3 117 127.4 117.2C127.5 117.4 127.6 117.6 127.8 117.7C128 117.8 128.1 117.9 128.3 118C128.6 118.2 129 118.2 129.3 118C129.7 117.8 130.1 117.5 130.3 117.1C130.6 116.7 130.8 116.3 131 115.9C131.2 115.6 131.3 115.2 131.4 114.9C131.5 114.5 131.6 114.2 131.7 113.8C131.8 113.7 131.8 113.5 131.7 113.4C131.7 113.3 131.6 113.2 131.5 113.1H131.4C131.3 113.1 131.3 113.1 131.2 113.1C130.6 113.1 130 113.3 129.5 113.6Z" fill="black"></path> <path d="M91.7 85.2C98.5 82.8 100.8 81.3 103.8 79C107.1 76.5 112.3 69.8 112.3 69.8C112.3 69.8 111.8 72.2 111.1 74.5C110.4 76.7 109.2 78.9 109 79.2C102.2 87.3 93.3999 87.3 93.3999 87.3C93.3999 87.3 92.9999 87.1 92.3999 86.4C91.8999 85.8 91.7 85.2 91.7 85.2Z" fill="white"></path> <path d="M130.4 19.4C129.5 18 128.3 17 126.9 16.1C125.5 15.2 124.1 14.6 122.6 14C122.4 13.9 122.1 13.9 121.9 13.8C122.3 13.3 122.6 12.7 122.9 12.2C123.3 11.5 123.6 10.6 123.7 9.80002C123.8 8.90002 123.7 8.00001 123.5 7.20001C123.2 6.40001 122.7 5.60002 122.1 5.00002C121.5 4.40002 120.8 3.80002 120.1 3.30002C119.4 2.80002 118.5 2.60002 117.7 2.30002C116.9 2.00002 116.1 1.70002 115.3 1.50002C113.7 1.10002 112 0.800019 110.3 0.800019C106.9 0.600019 103.5 1.00001 100.2 1.70001C99.4 1.90001 98.6 2.10002 97.7 2.30002C96.9 2.50002 96.1 2.80002 95.3 3.00002C93.7 3.60002 92.2 4.30001 90.7 5.10001C87.8 6.70001 85.1 8.80001 82.8 11.1C78 15.7 74.1 21 70.8 26.5C70.3 27.2 69.9 28 69.5 28.8C69.1 28.1 68.7 27.5 68.3 26.9C66.2 23.8 63.8 20.9 61.1 18.3C58.4 15.7 55.5 13.3 52.2 11.3C50.6 10.3 48.9 9.40001 47.2 8.60001C46.3 8.20001 45.5 7.80002 44.5 7.50002C43.6 7.20002 42.6 6.90001 41.6 6.70001C40.6 6.50001 39.6 6.50001 38.5 6.70001C37.5 6.90001 36.5 7.30002 35.7 7.90002C34.9 8.50002 34.2 9.30001 33.7 10.1C33.2 10.9 32.8 11.8 32.6 12.7C32.1 14.5 31.9 16.4 31.9 18.2C31.9 18.5 31.9 18.9 32 19.2C31.6 19.3 31.2 19.4 30.9 19.5C30.5 19.6 30 19.8 29.6 20C29.2 20.2 28.8 20.4 28.4 20.6C27.6 21 26.8 21.6 26.2 22.3C25.9 22.7 25.6 23.1 25.5 23.5C25.3 23.9 25.2 24.4 25.2 24.9C25.1 25.8 25.2 26.8 25.5 27.6C26 29.3 27 30.9 28.1 32.3C29.2 33.7 30.4 35 31.7 36.3C34.3 38.7 37.3 40.9 40.3 42.8C42.9 44.4 45.5 45.8 48.3 47C48.9 46.6 49.5 46.3 50.2 46.1C50.2 46.1 50.3 46.1 50.3 46.2C50.8 45.8 51.4 45.4 52 45.1C51.8 44.9 51.6 44.6 51.3 44.5C50.8 44.1 50.3 43.8 49.8 43.4C48.8 42.7 47.8 41.9 46.8 41.1C44.8 39.5 43 37.8 41.2 36C39.5 34.2 37.9 32.2 36.6 30.1C35.9 29.1 35.4 28 34.8 26.8C34.3 25.7 33.9 24.5 33.6 23.3C33.2 21.6 32.9 19.8 32.9 18C32.9 16.2 33.1 14.4 33.6 12.8C34.1 11.1 35 9.50002 36.4 8.50002C37.1 8.00002 37.9 7.60002 38.8 7.50002C39.7 7.30002 40.6 7.40002 41.4 7.50002C42.3 7.60002 43.2 7.90001 44 8.20001C44.9 8.50001 45.7 8.90002 46.6 9.30002C48.3 10.1 49.9 11 51.5 12C54.6 14 57.5 16.3 60.2 18.9C62.8 21.5 65.2 24.3 67.2 27.3C67.8 28.1 68.2 29 68.7 29.8C67.8 31.4 66.9 33.1 66 34.8C65.7 35.4 65.4 36.1 65.1 36.7C64.5 35.5 63.9 34.4 63.2 33.4C62.9 32.8 62.5 32.3 62.1 31.7C61.7 31.1 61.3 30.6 60.9 30C59.3 27.8 57.5 25.8 55.6 23.8C53.7 21.9 51.5 20.1 49.3 18.6L47.6 17.5C47 17.2 46.4 16.8 45.8 16.5L44.9 16L44 15.6L42.1 14.8L41.9 15.2L43.7 16.1L44.6 16.6L45.5 17.1C46.1 17.5 46.7 17.8 47.2 18.2L48.8 19.4C50.9 21 53 22.8 54.8 24.8C56.6 26.8 58.3 28.8 59.7 31C60.1 31.6 60.4 32.1 60.8 32.7C61.1 33.3 61.5 33.8 61.8 34.4C62.5 35.5 63.6 37.8 64.1 38.9L64.4 38.4C64.2 38.8 64 39.1 63.9 39.5C63.6 40.2 63.2 41 62.9 41.7L62.4 42.8L62.2 43.4L62.1 43.5V43.6V43.7C62 43.9 62 44.1 62 44.4C62 44.6 62.1 44.8 62.2 45C62.3 45.1 62.5 45.3 62.8 45.3C63 45.4 63.4 45.3 63.4 45.3H63.5H63.7H64L64.6 45.2L65.9 45L68.4 44.6C68.9 44.5 69.4 44.4 69.9 44.3C70.2 44.4 70.6 44.6 70.9 44.7C72.5 45.2 74.1 45.4 75.8 45.5C77.4 45.6 79.1 45.5 80.7 45.4C82.3 45.3 83.9 45.1 85.5 44.9C88.7 44.4 91.8 43.8 94.9 43.1C98 42.4 101.1 41.6 104.1 40.7C107.1 39.8 110.2 38.8 113.1 37.7C116.1 36.6 119 35.3 121.8 33.9C123.2 33.2 124.6 32.4 125.9 31.5C127.2 30.6 128.5 29.6 129.6 28.4C130.7 27.2 131.5 25.7 131.6 24.1C131.7 22.4 131.3 20.7 130.4 19.4ZM33.6 27.1C34.1 28.3 34.6 29.4 35.3 30.5C36.6 32.7 38.1 34.8 39.7 36.8C41.4 38.8 43.2 40.6 45.2 42.3C46.2 43.2 47.2 44 48.2 44.8C48.6 45.1 49 45.4 49.4 45.6C46.5 44.3 43.6 42.9 40.9 41.3C37.9 39.5 35 37.5 32.3 35.2C31 34.1 29.8 32.8 28.7 31.5C27.6 30.2 26.7 28.7 26.2 27.2C25.9 26.4 25.8 25.6 25.9 24.9C25.9 24.5 26 24.1 26.2 23.8C26.3 23.4 26.5 23.1 26.8 22.8C27 22.5 27.3 22.2 27.7 22C27.9 21.9 28 21.8 28.2 21.6C28.4 21.5 28.6 21.4 28.8 21.3C29.2 21.1 29.6 20.9 30 20.7C30.4 20.5 30.8 20.3 31.2 20.2C31.5 20.1 31.8 20 32.1 19.9C32.2 21.1 32.4 22.3 32.6 23.5C32.8 24.7 33.2 26 33.6 27.1ZM67.9 42.3L65.4 42.7L64.8 42.8L65 42.3C65.3 41.6 65.6 40.8 65.9 40.1C66.5 38.6 67.1 37.2 67.8 35.7C69.1 32.8 70.6 30 72.1 27.2C73.7 24.4 75.4 21.7 77.3 19.1C79.2 16.5 81.3 14 83.6 11.8C85.9 9.50002 88.4 7.50002 91.2 5.90002C92.6 5.10002 94.1 4.40002 95.6 3.80002C96.4 3.50002 97.1 3.30001 97.9 3.10001C98.7 2.90001 99.5 2.70002 100.3 2.50002C103.5 1.80002 106.8 1.40001 110.1 1.60001C111.7 1.70001 113.4 1.90002 115 2.30002C115.8 2.50002 116.6 2.70002 117.3 3.00002C118.1 3.30002 118.7 3.80001 119.4 4.20001C120.1 4.60001 120.7 5.10001 121.1 5.70001C121.6 6.30001 122 6.90001 122.2 7.60001C122.4 8.30001 122.5 9.00001 122.4 9.70001C122.3 10.4 122 11.1 121.7 11.8C121 13.1 120 14.4 119 15.6C117.9 16.8 116.8 17.9 115.6 19C113.2 21.2 110.7 23.2 108.1 25.2C105.5 27.1 102.8 29 100 30.7C97.2 32.4 94.4 34 91.4 35.5C88.5 37 85.5 38.3 82.4 39.4C80.9 39.9 79.3 40.4 77.7 40.7C76.1 41 74.4 41.3 72.8 41.6C71.2 41.8 69.6 42 67.9 42.3ZM130.5 23.9C130.4 24.6 130.2 25.3 129.9 25.9C129.6 26.5 129.2 27.1 128.7 27.7C127.7 28.8 126.5 29.7 125.2 30.5C123.9 31.3 122.6 32.1 121.2 32.7C118.4 34.1 115.5 35.2 112.6 36.2C109.7 37.2 106.7 38.2 103.6 39C97.6 40.7 91.4 42.1 85.2 43.1C83.7 43.3 82.1 43.5 80.5 43.7C78.9 43.8 77.4 43.9 75.9 43.9C75 43.9 74.2 43.8 73.4 43.7C75.1 43.4 76.7 43.1 78.3 42.7C80 42.3 81.6 41.8 83.2 41.2C86.4 40 89.4 38.6 92.4 37.1C95.4 35.5 98.2 33.9 101 32.1C103.8 30.3 106.5 28.4 109.1 26.4C111.7 24.4 114.3 22.3 116.6 20C117.8 18.9 118.9 17.7 120 16.4C120.5 15.9 120.9 15.3 121.3 14.7C121.6 14.8 121.9 14.9 122.2 15C123.7 15.5 125.1 16.2 126.3 17C127.6 17.8 128.7 18.8 129.5 20.1C130.3 21.1 130.7 22.5 130.5 23.9Z" fill="black"></path> <path d="M84.4999 21.9C85.6999 20.5 86.9999 19.1 88.3999 17.8C89.6999 16.5 91.0999 15.2 92.5999 14C94.0999 12.8 95.6 11.7 97.2 10.7C98.8 9.70002 100.5 8.90003 102.4 8.30003L102.3 7.90002C100.4 8.40002 98.5999 9.20002 96.8999 10.2C95.1999 11.1 93.5999 12.2 92.0999 13.4C90.5999 14.6 89.1 15.8 87.7 17.1C86.3 18.4 84.8999 19.7 83.5999 21.1C80.9999 23.8 78.5 26.7 76.2 29.7C73.9 32.7 70.3 37.5 68.2 40.7L71.2 40.3C73.1 37.2 75.2999 33.7 77.4999 30.7C79.6999 27.6 81.9999 24.7 84.4999 21.9Z" fill="black"></path> <path d="M87.1 28.6C89.2 26.8 91.4 25 93.7 23.5C96 21.9 98.4 20.5 101.1 19.5L101 19.1C98.3 20 95.7 21.4 93.3 22.9C90.9 24.4 88.6 26.1 86.4 27.8C84.2 29.5 82 31.4 80 33.3C77.9 35.2 74.7 38.3 72.9 40.1L76.1 39.5C77.8 37.7 79.1 36.3 81.1 34.4C82.9 32.3 85 30.4 87.1 28.6Z" fill="black"></path> <path d="M56.4 34.7C55.2 33.2 53.8 31.7 52.4 30.4L51.9 29.9L51.3 29.4C50.9 29.1 50.6 28.8 50.2 28.5C49.4 27.9 48.6 27.3 47.8 26.8C46.2 25.7 44.4 24.8 42.6 24L42.4 24.4C44.1 25.3 45.8 26.3 47.3 27.5C48.1 28.1 48.8 28.7 49.5 29.3C49.9 29.6 50.2 29.9 50.5 30.3L51 30.8L51.5 31.3C52.8 32.7 54 34.1 55.1 35.7C55.6 36.5 56.1 37.3 56.6 38.1C57.1 38.9 58 40.6 58.3 41.4L60.1 40.7C59.6 39.8 58.7 38.1 58.1 37.2C57.6 36.3 57 35.5 56.4 34.7Z" fill="black"></path> </svg> 