<svg width="167" height="16" viewBox="0 0 167 16" fill="none" xmlns="http://www.w3.org/2000/svg">
<path d="M0.800608 8C0.800608 10.9455 3.18842 13.3333 6.13394 13.3333C9.07946 13.3333 11.4673 10.9455 11.4673 8C11.4673 5.05448 9.07946 2.66667 6.13394 2.66667C3.18842 2.66667 0.800608 5.05448 0.800608 8ZM166.035 8.70711C166.426 8.31658 166.426 7.68342 166.035 7.29289L159.671 0.928932C159.281 0.538408 158.648 0.538408 158.257 0.928932C157.867 1.31946 157.867 1.95262 158.257 2.34315L163.914 8L158.257 13.6569C157.867 14.0474 157.867 14.6805 158.257 15.0711C158.648 15.4616 159.281 15.4616 159.671 15.0711L166.035 8.70711ZM6.13394 9H165.328V7H6.13394V9Z" fill="#4877F1"/>
</svg>
