<svg width="64" height="64" viewBox="0 0 64 64" fill="none" xmlns="http://www.w3.org/2000/svg">
<ellipse cx="32.4" cy="31.6001" rx="12.4" ry="10" fill="#D9D9D9"/>
<g clip-path="url(#clip0_62_6)">
<path fill-rule="evenodd" clip-rule="evenodd" d="M31.9061 20.4989V0.00488281L26.0261 21.7245C27.895 20.961 29.8878 20.5456 31.9061 20.4989ZM23.1314 23.3268L18.1981 18.3934L21.3145 24.9053C21.8695 24.3235 22.4778 23.795 23.1314 23.3268ZM6.40002 32.2397H18.4747C18.613 34.6837 19.7265 36.9251 21.5053 38.7205L6.40002 32.2397ZM57.889 31.7628L44.3241 25.9449C45.5957 27.6021 46.2921 29.6287 46.3079 31.7175V31.7628H57.889ZM45.7523 18.0572L40.9454 22.8642C40.1378 22.3569 39.2835 21.9281 38.3941 21.5838L45.7523 18.0572ZM32.3829 42.9552V64.0001L38.375 41.8608C36.4619 42.5911 34.4306 42.9621 32.3829 42.9552ZM18.5367 45.9477L23.8778 40.6066C24.7907 41.1734 25.762 41.6402 26.7748 41.9991L18.5367 45.9477ZM41.0097 40.5279L46.0885 45.6091L42.9387 39.0329C42.3431 39.5896 41.6974 40.09 41.0097 40.5279ZM32.1445 43.2819L31.2837 42.9123C31.5675 42.9362 31.856 42.9457 32.1445 42.9457V43.2819Z" fill="#F7D118"/>
<path fill-rule="evenodd" clip-rule="evenodd" d="M32.3829 20.4988C34.3716 20.4932 36.3452 20.8437 38.2104 21.5336L32.3829 0V20.4988ZM26.1406 21.691L18.5367 18.0476L23.5439 23.0548C24.3614 22.514 25.2314 22.0571 26.1406 21.691ZM20.7065 25.6253C19.2709 27.3421 18.4746 29.5034 18.4532 31.7413V31.7627H6.40002L20.7065 25.6253ZM43.1199 24.5928L46.0886 18.3933L41.3436 23.1454C41.9768 23.5751 42.5712 24.0594 43.1199 24.5928ZM43.6254 38.3604C45.1959 36.6903 46.1381 34.527 46.2912 32.2396H57.889L43.6254 38.3604ZM37.7455 42.1111L45.7523 45.9476L40.6068 40.8021C39.7009 41.3363 38.742 41.7751 37.7455 42.1111ZM18.1981 45.6114L21.4934 38.7323C22.0886 39.3392 22.7419 39.8862 23.4438 40.3657L18.1981 45.6114ZM32.3829 42.979H32.1445V43.2914L32.886 42.9718C32.8276 42.9718 32.7692 42.9727 32.7106 42.9739C32.602 42.976 32.4929 42.979 32.3829 42.979ZM31.9061 63.9999L25.8616 41.6652C27.776 42.4777 29.8269 42.9203 31.9061 42.9694V63.9999Z" fill="#D32E10"/>
<path fill-rule="evenodd" clip-rule="evenodd" d="M19.4523 31.7295C19.4523 37.4854 25.2535 42.1661 32.3829 42.1661C39.5123 42.1661 45.3136 37.4759 45.3136 31.7295C45.3136 25.983 39.5123 21.2905 32.3829 21.2905C25.2535 21.2905 19.4523 25.9735 19.4523 31.7295ZM19.9292 31.7295C19.9292 26.2382 25.5158 21.7674 32.3829 21.7674C39.25 21.7674 44.8367 26.2382 44.8367 31.7295C44.8367 37.2208 39.25 41.6892 32.3829 41.6892C25.5158 41.6892 19.9292 37.2208 19.9292 31.7295ZM38.7922 39.5909H35.9762L35.2919 37.2828H29.6671L28.9828 39.5909H26.1668L30.9761 23.3912H33.9853L38.7922 39.5909ZM32.4807 27.8071L30.3872 34.8555H34.5718L32.4807 27.8071Z" fill="#1F1919"/>
</g>
<defs>
<clipPath id="clip0_62_6">
<rect width="64" height="64" rx="32" fill="white"/>
</clipPath>
</defs>
</svg>
