<svg width="29.302002" height="29.302002" viewBox="0 0 29.302 29.302" xmlns="http://www.w3.org/2000/svg" xmlns:xlink="http://www.w3.org/1999/xlink">
	<desc>
			Created with Pixso.
	</desc>
	<defs>
		<clipPath id="clip4_50">
			<rect id="coffee-beans (1)" width="29.302002" height="29.302002"/>
		</clipPath>
	</defs>
	<g clip-path="url(#clip4_50)">
		<path id="Vector" d="M5.38846 26.5504C4.03448 24.1621 4.95554 20.4168 7.75693 17.6151C10.9384 14.4341 15.337 13.6759 17.5827 15.9214C17.5851 15.9242 17.5879 15.9274 17.5913 15.9304C17.1418 17.2383 15.7102 20.0203 11.42 21.5245C7.48941 22.9031 5.97354 25.0955 5.38846 26.5504ZM16.2605 19.5906C15.2344 20.6175 13.776 21.6253 11.7102 22.3503C7.51767 23.8203 6.34631 26.2275 6.01944 27.3931C6.03528 27.4089 6.04807 27.4255 6.06293 27.4401C8.30844 29.6857 12.7076 28.9273 15.8882 25.7464C18.7188 22.9159 19.6292 19.1225 18.2142 16.7383C17.8737 17.5324 17.2812 18.5697 16.2605 19.5906ZM7.58466 9.2452C12.1138 9.6421 14.564 7.6964 15.512 6.69018C15.5103 6.68618 15.5092 6.68167 15.5079 6.67805C14.387 3.70713 10.0663 2.58599 5.85745 4.17405C2.15076 5.57274 -0.231903 8.60593 0.0179138 11.3398C1.1506 10.2555 3.43515 8.88223 7.58466 9.2452ZM9.9169 14.9334C13.6625 13.5205 16.0541 10.4387 15.7471 7.6831C15.1096 8.26655 14.1423 8.96808 12.7918 9.47781C11.434 9.99005 9.6897 10.3081 7.50894 10.1171C3.0834 9.72905 1.02377 11.4401 0.2453 12.3682C0.253204 12.3888 0.258759 12.4091 0.26593 12.4285C1.38705 15.4002 5.70786 16.5218 9.9169 14.9334ZM23.0248 8.73791C25.7422 5.09207 25.3735 1.9848 25.0151 0.649693C25.0109 0.649246 25.0069 0.647694 25.003 0.646809C21.8859 0.0399208 18.6621 3.12782 17.8023 7.54313C17.0451 11.4328 18.3749 15.0528 20.8322 16.2767C20.5046 14.7432 20.5365 12.0782 23.0248 8.73791ZM25.9836 0.971325C26.1454 1.82058 26.2341 3.0121 25.9583 4.42862C25.6811 5.85356 25.0348 7.50468 23.7271 9.26028C21.0722 12.8223 21.4461 15.4731 21.8269 16.623C21.8487 16.6275 21.869 16.6331 21.8891 16.6375C25.0065 17.2444 28.2299 14.157 29.0896 9.74125C29.8553 5.81186 28.4892 2.15715 25.9836 0.971325Z"/>
	</g>
</svg>
