<svg width="94" height="80" viewBox="0 0 94 80" fill="none" xmlns="http://www.w3.org/2000/svg">
<path fill-rule="evenodd" clip-rule="evenodd" d="M61.0002 0L69.3989 13.998L93.6668 14V79.3333H0.333496V14H24.6002L33.0002 0H61.0002ZM55.7128 9.33333H38.2782L29.8846 23.3333H9.66683V70H84.3335V23.3287L64.1142 23.3308L55.7128 9.33333ZM47.0002 23.3333C58.5981 23.3333 68.0002 32.7354 68.0002 44.3333C68.0002 55.9313 58.5981 65.3333 47.0002 65.3333C35.4022 65.3333 26.0002 55.9313 26.0002 44.3333C26.0002 32.7354 35.4022 23.3333 47.0002 23.3333ZM47.0002 32.6667C40.5568 32.6667 35.3335 37.89 35.3335 44.3333C35.3335 50.7767 40.5568 56 47.0002 56C53.4435 56 58.6668 50.7767 58.6668 44.3333C58.6668 37.89 53.4435 32.6667 47.0002 32.6667ZM75.0002 28C77.5775 28 79.6668 30.0893 79.6668 32.6667C79.6668 35.244 77.5775 37.3333 75.0002 37.3333C72.4228 37.3333 70.3335 35.244 70.3335 32.6667C70.3335 30.0893 72.4228 28 75.0002 28Z" fill="#265C73"/>
</svg>
