<svg width="232" height="40" viewBox="0 0 232 40" fill="none" xmlns="http://www.w3.org/2000/svg">
<path d="M20 1.61804L24.0148 13.9742L24.127 14.3197H24.4903H37.4823L26.9715 21.9562L26.6776 22.1697L26.7899 22.5152L30.8046 34.8713L20.2939 27.2348L20 27.0213L19.7061 27.2348L9.19535 34.8713L13.2101 22.5152L13.3224 22.1697L13.0285 21.9562L2.51771 14.3197H15.5097H15.873L15.9852 13.9742L20 1.61804Z" fill="#FAE100" stroke="black"/>
<path d="M68 1.61804L72.0148 13.9742L72.127 14.3197H72.4903H85.4823L74.9715 21.9562L74.6776 22.1697L74.7899 22.5152L78.8046 34.8713L68.2939 27.2348L68 27.0213L67.7061 27.2348L57.1954 34.8713L61.2101 22.5152L61.3224 22.1697L61.0285 21.9562L50.5177 14.3197H63.5097H63.873L63.9852 13.9742L68 1.61804Z" fill="#FAE100" stroke="black"/>
<path d="M116 1.61804L120.015 13.9742L120.127 14.3197H120.49H133.482L122.972 21.9562L122.678 22.1697L122.79 22.5152L126.805 34.8713L116.294 27.2348L116 27.0213L115.706 27.2348L105.195 34.8713L109.21 22.5152L109.322 22.1697L109.028 21.9562L98.5177 14.3197H111.51H111.873L111.985 13.9742L116 1.61804Z" fill="#FAE100" stroke="black"/>
<path d="M164 1.61804L168.015 13.9742L168.127 14.3197H168.49H181.482L170.972 21.9562L170.678 22.1697L170.79 22.5152L174.805 34.8713L164.294 27.2348L164 27.0213L163.706 27.2348L153.195 34.8713L157.21 22.5152L157.322 22.1697L157.028 21.9562L146.518 14.3197H159.51H159.873L159.985 13.9742L164 1.61804Z" fill="#FAE100" stroke="black"/>
<path d="M212 1.61804L216.015 13.9742L216.127 14.3197H216.49H229.482L218.972 21.9562L218.678 22.1697L218.79 22.5152L222.805 34.8713L212.294 27.2348L212 27.0213L211.706 27.2348L201.195 34.8713L205.21 22.5152L205.322 22.1697L205.028 21.9562L194.518 14.3197H207.51H207.873L207.985 13.9742L212 1.61804Z" fill="#FAE100" stroke="black"/>
</svg>
